# xmcd
# 
# Track frame offsets:
#     150
#     34175
#     63330
#     101062
#     128587
#     155762
# 
# Disc length: 2535
# 
# Revision: 2
# Processed by: cddbd v1.5.2PL0 Copyright (c) Steve Scherf et al.
# Submitted via: BonkEnc v1.0.8
# 
DISCID=4b09e506
DTITLE=Eric Clapton - A Wednesday Night At The Tokyo Dome
DYEAR=1992
DGENRE=Blues
TTITLE0=Crossroads
TTITLE1=White Room
TTITLE2=I Shot The Sheriff
TTITLE3=Money For Nothing
TTITLE4=I Dont´t Wanna Do Like That
TTITLE5=Wonderful Tonight
EXTD=Eric Clapton (lg, voc), Mark Knopfler (lg, voc), Elton John (keyb, voc), Steve Ferrone (dr), Ray Cooper (perc), Nathan East (b), Alan Clark (keyb)
EXTT0=
EXTT1=
EXTT2=
EXTT3=
EXTT4=
EXTT5=
PLAYORDER=
